<?xml version="1.0" encoding="UTF-8"?> <svg xmlns="http://www.w3.org/2000/svg" id="GGLOOSH" viewBox="0 0 553.1 44.9"> <defs> <style> .cls-1 { stroke: #000; stroke-miterlimit: 10; stroke-width: 0.75px; } </style> </defs> <title>ggloosh prod</title> <g> <path d="M82.5,201.2H71.6v-2A22.7,22.7,0,0,1,61.4,202c-1.5.1-11.3.2-18-7.7a21.2,21.2,0,0,1-4.8-13.9c0-12,8.9-21.7,22.8-21.7,9.5,0,19.5,4.6,20.7,15.1H70.2c-.4-3.6-4.2-5.8-9-5.8-7.7,0-10.6,6.2-10.6,12.4s2.9,12.3,10.6,12.3c5.8,0,9.9-2.5,10.5-6.3H63.4v-8H82.6v22.8Z" transform="translate(-38.6 -157.3)"></path> <path d="M134.2,201.2H123.3v-2a22.3,22.3,0,0,1-10.2,2.8c-1.5.1-11.3.2-18-7.7a21.3,21.3,0,0,1-4.9-14c0-12,9-21.7,22.9-21.7,9.5,0,19.5,4.6,20.7,15.1H121.9c-.4-3.6-4.3-5.7-9-5.7-7.7,0-10.6,6.1-10.6,12.3s2.9,12.4,10.6,12.4c5.9,0,9.9-2.5,10.5-6.3h-8.3v-8.1h19.3l-.2,22.9Z" transform="translate(-38.6 -157.3)"></path> <path d="M143.7,159.7h11.9V192h21.3v9.2H143.7V159.7Z" transform="translate(-38.6 -157.3)"></path> <path class="cls-1" d="M226.4,184.4l-10.8-19.6a10.6,10.6,0,0,0-4.1-4.3,11.4,11.4,0,0,0-4-1.5,10.3,10.3,0,0,0-4.3.3,9.7,9.7,0,0,0-4,1.8,12.2,12.2,0,0,0-2.9,3.1h-.1a1.4,1.4,0,0,0-2,.6l-5.9,10a1.1,1.1,0,0,0-.1,1.1,1.3,1.3,0,0,0,.8,1.1l7.7,4.6a1.8,1.8,0,0,0,1.5,0,2.1,2.1,0,0,0,.7-.5l5.9-10.1a1.4,1.4,0,0,0-.6-2h-.1a2.4,2.4,0,0,1,2.9-.4,2.4,2.4,0,0,1,.8.9l10.8,19.7a2.3,2.3,0,0,1-2,3.4H194.2a3.3,3.3,0,0,1-1.3-.4,2.4,2.4,0,0,1-.8-3.1l2.3-3.8a.5.5,0,0,0-.2-.8l-6.8-4c-.3-.2-.5-.1-.8.1l-2.3,3.9a11.1,11.1,0,0,0-1.5,4.3,10.8,10.8,0,0,0,.4,4.4,12.1,12.1,0,0,0,1.8,3.8,12.8,12.8,0,0,0,3.3,2.9,10.5,10.5,0,0,0,5.7,1.6h22.4a11.1,11.1,0,0,0,9.7-5.6,12.7,12.7,0,0,0,1.7-5.3A12.2,12.2,0,0,0,226.4,184.4Z" transform="translate(-38.6 -157.3)"></path> <path class="cls-1" d="M262.6,195.7l11.6-19.2a10.5,10.5,0,0,0,1.6-5.7,12.6,12.6,0,0,0-.8-4.3,11.8,11.8,0,0,0-2.3-3.5,13.2,13.2,0,0,0-3.6-2.6,11.6,11.6,0,0,0-4-.9v-.2a1.5,1.5,0,0,0-1.5-1.5H252a1.5,1.5,0,0,0-1.5,1.5h0v9h0a1.5,1.5,0,0,0,1.5,1.5h11.6a1.5,1.5,0,0,0,1.5-1.4h0a2.2,2.2,0,0,1,1.8,2.2,2.8,2.8,0,0,1-.4,1.2L254.8,191a2.3,2.3,0,0,1-3.9,0l-11.3-19.4a1.6,1.6,0,0,1-.2-1.2,2.3,2.3,0,0,1,2.3-2.3h4.4a.6.6,0,0,0,.6-.6v-7.8a.5.5,0,0,0-.5-.5h-4.4a11.8,11.8,0,0,0-4.6.9,12.9,12.9,0,0,0-3.6,2.5,11.5,11.5,0,0,0-2.4,3.5,13.2,13.2,0,0,0-.9,4.3,11.3,11.3,0,0,0,1.5,5.7l11.2,19.4a12.4,12.4,0,0,0,4.3,4.2,11.3,11.3,0,0,0,5.5,1.5,10.4,10.4,0,0,0,5.4-1.4A12,12,0,0,0,262.6,195.7Z" transform="translate(-38.6 -157.3)"></path> <path d="M292.7,187.3c.2,4.8,3.6,6.4,8.7,6.4s7.3-1.2,7.3-4.3-6.6-4.4-13.1-6-13.4-4.4-13.4-12,10.1-12.7,18.6-12.7,18.3,4,18.4,13.4H307.3c.2-3.8-3.7-5-7.3-5s-5.8.8-5.8,3.6,6.6,3.7,13.3,5.4,13.2,4.5,13.2,12c0,10.6-9.9,14-19.9,14s-19.8-4.2-19.9-14.8Z" transform="translate(-38.6 -157.3)"></path> <path d="M328,159.7h11.8v15.1h15.8V159.7h11.8v41.6H355.6V184.2H339.9v17.1H328V159.7Z" transform="translate(-38.6 -157.3)"></path> </g> <g> <path d="M409.4,159.9h19.7c7.7,0,15,3.6,15,13.4s-5.9,14.2-15,14.2h-8.9v13.8H409.4Zm10.8,19.3h7.3c3.3,0,5.8-1.4,5.8-5.2s-2.5-5.4-5.8-5.4h-7.3Z" transform="translate(-38.6 -157.3)"></path> <path d="M449.2,159.9h21.2c7.4,0,14.6,3.3,14.6,11.7,0,4.4-2.2,8.7-6.5,10.4h0c4.4,1,5.7,6,6,9.9.1,1.7.3,7.8,1.8,9.3H475.6c-1-1.3-1.1-5.4-1.3-6.6-.3-4.1-1-8.4-6-8.4h-8.2v15H449.2Zm10.9,18h9.1c3.2,0,5-1.7,5-4.9s-2.5-4.4-5.5-4.4h-8.6Z" transform="translate(-38.6 -157.3)"></path> <path d="M510.2,159.1c13.1,0,20.5,9.5,20.5,21.5s-7.4,21.6-20.5,21.6-20.5-9.6-20.5-21.6S497.1,159.1,510.2,159.1Zm0,33.8c7,0,9.7-6.1,9.7-12.3s-2.7-12.3-9.7-12.3-9.7,6.2-9.7,12.3S503.2,192.9,510.2,192.9Z" transform="translate(-38.6 -157.3)"></path> <path d="M536.6,159.9h17.9c12.7,0,20.3,7.7,20.3,20.6s-7.7,20.8-20.3,20.8H536.6Zm10.8,32.2h5.1c8.3-.2,11.5-3.4,11.5-11.7s-4.1-11.2-11.5-11.2h-5.1Z" transform="translate(-38.6 -157.3)"></path> <path d="M580.8,190.6h10.9v10.7H580.8Z" transform="translate(-38.6 -157.3)"></path> </g> </svg> 