<?xml version="1.0" encoding="UTF-8"?> <svg xmlns="http://www.w3.org/2000/svg" width="597" height="683" viewBox="0 0 597 683" fill="none"> <path fill-rule="evenodd" clip-rule="evenodd" d="M0.0599976 212.21H596.6V622.72C596.6 655.44 569.83 682.21 537.1 682.21H59.56C26.83 682.21 0.0599976 655.44 0.0599976 622.72V212.21ZM440.65 179.88V80.9199C440.65 70.7799 432.22 62.3599 422.06 62.3599H174.58C164.43 62.3599 156.01 70.7799 156.01 80.9199V179.88H94.1V80.9199C94.1 36.5999 130.25 0.439941 174.58 0.439941H422.06C466.39 0.439941 502.55 36.5999 502.55 80.9199V179.88H440.65ZM60.78 286.36H190.85V339.03H60.78V286.36ZM405.81 286.36H535.87V339.03H405.81V286.36Z" fill="black"></path> <rect x="49" y="256" width="505" height="115" fill="black"></rect> </svg> 